<?xml version="1.0" standalone="no"?> <!DOCTYPE svg PUBLIC "-//W3C//DTD SVG 1.0//EN" "http://www.w3.org/TR/2001/REC-SVG-20010904/DTD/svg10.dtd" > <svg xmlns="http://www.w3.org/2000/svg" width="100%" height="100%">
<defs >
<font id="helveticaltstdlight" horiz-adv-x="916" ><font-face
    font-family="Helvetica LT Std Light"
    units-per-em="2048"
    panose-1="2 11 4 3 2 2 2 2 2 4"
    ascent="1470"
    descent="-578"
    alphabetic="0" />
<missing-glyph horiz-adv-x="1024" d="M0 0V1434H1024V0H0ZM512 809L860 1331H164L512 809ZM573 717L922 195V1239L573 717ZM164 102H860L512 625L164 102ZM102 1239V195L451 717L102 1239Z" />
<glyph unicode=" " glyph-name="space" horiz-adv-x="569" />
<glyph unicode="!" glyph-name="exclam" horiz-adv-x="681" d="M295 371L266 1016V1475H416V1016L387 371H295ZM416 0H266V180H416V0Z" />
<glyph unicode="&quot;" glyph-name="quotedbl" horiz-adv-x="569" d="M117 1012V1475H223V1012H117ZM344 1012V1475H451V1012H344Z" />
<glyph unicode="#" glyph-name="numbersign" horiz-adv-x="1138" d="M1032 588V467H805L739 0H618L682 467H401L332 0H211L281 467H55V588H299L342 874H113V995H358L424 1430H547L481 995H760L823 1430H944L881 995H1085V874H864L823 588H1032ZM743 874H465L420
588H702L743 874Z" />
<glyph unicode="$" glyph-name="dollar" horiz-adv-x="1138" d="M522 807V1333Q405 1333 326 1261T246 1077Q246 1025 261 984T298 917T360 869T434 835T522 807ZM618 659V72Q747 72 838 157T930 369Q930 428 914 473T872 548T803 599T719 634T618 659ZM618 -39V-195H524V-39Q349
-30 236 59T86 315Q80 350 76 416H209Q209 276 296 178T522 72V680Q447 698 393 717T283 767T193 837T137 936T115 1071Q115 1238 235 1343T524 1444V1569H618V1444Q791 1446 901 1350T1018 1083H885Q884 1194 808 1263T618 1333V788Q694 770 745 755T852 715T941
659T1005 585T1047 482T1061 346Q1061 259 1023 186T921 66T779 -9T618 -39Z" />
<glyph unicode="%" glyph-name="percent" horiz-adv-x="1820" d="M1209 678T1348 678T1584 579T1681 340Q1681 199 1585 100T1348 0T1108 100T1008 340Q1008 478 1108 578ZM1346 561Q1254 561 1189 495T1124 336Q1124 249 1191 183T1346 117T1499 184T1565 340T1500
495T1346 561ZM815 1230T815 1090T715 851T475 752Q336 752 237 851T137 1090T236 1329T475 1430Q615 1430 715 1330ZM386 868T475 868T631 934T698 1090T632 1246T475 1313T320 1247T254 1090T320 934ZM1368 1444L555 -29H449L1262 1444H1368Z" />
<glyph unicode="&amp;" glyph-name="ampersand" horiz-adv-x="1366" d="M930 268L510 768Q384 709 304 607T223 389Q223 246 317 159T555 72Q763 72 930 268ZM774 1106Q789 1139 790 1175T778 1245T742 1305T682 1348T600 1364Q520 1364 462 1315T403 1188Q403
1097 557 911Q663 976 701 1010Q751 1055 774 1106ZM629 819L999 381Q1061 484 1061 668H1182Q1171 425 1079 283L1319 0H1153L1010 174Q916 60 806 11T545 -39Q349 -39 217 83T84 399Q84 554 181 668T436 856Q364 939 322 1018T279 1186Q279 1321 374 1398T610
1475Q745 1475 832 1392T920 1190Q920 1149 911 1112T890 1047T853 990T809 942T753 898T694 859T629 819Z" />
<glyph unicode="&apos;" glyph-name="quotesingle" horiz-adv-x="454" d="M174 1012V1475H281V1012H174Z" />
<glyph unicode="(" glyph-name="parenleft" horiz-adv-x="681" d="M463 1513H567Q418 1296 336 1052T254 555Q254 75 567 -391H463Q342 -224 270 -89T156 211T113 565Q113 833 200 1056T463 1513Z" />
<glyph unicode=")" glyph-name="parenright" horiz-adv-x="681" d="M219 -391H115Q264 -174 346 70T428 567Q428 1047 115 1513H219Q340 1346 412 1211T526 911T569 557Q569 289 482 67T219 -391Z" />
<glyph unicode="*" glyph-name="asterisk" horiz-adv-x="796" d="M127 1323L354 1235V1475H440V1235L674 1321L705 1231L471 1155L625 938L545 889L393 1110L233 893L162 948L319 1155L90 1237L127 1323Z" />
<glyph unicode="+" glyph-name="plus" horiz-adv-x="1351" d="M614 573V1024H737V573H1188V451H737V0H614V451H164V573H614Z" />
<glyph unicode="," glyph-name="comma" horiz-adv-x="569" d="M358 180V-61Q358 -147 318 -203T209 -281V-205Q241 -185 260 -155T279 -70V0H209V180H358Z" />
<glyph unicode="-" glyph-name="hyphen" horiz-adv-x="681" d="M82 596H600V469H82V596Z" />
<glyph unicode="." glyph-name="period" horiz-adv-x="569" d="M358 0H209V180H358V0Z" />
<glyph unicode="/" glyph-name="slash" horiz-adv-x="569" d="M590 1513L109 -184H-6L475 1513H590Z" />
<glyph unicode="0" glyph-name="zero" horiz-adv-x="1138" d="M926 711Q926 795 920 865T900 1009T860 1139T795 1240T698 1309T565 1333Q211 1333 211 696Q211 551 228 443T286 252T397 125T569 82Q634 82 687 102T776 155T840 238T884 340T909 459T922 584T926
711ZM569 1444Q658 1444 730 1420T853 1355T940 1255T1000 1132T1035 991T1052 844T1057 696Q1057 573 1045 473T1000 276T913 115T773 11T569 -29T366 10T225 115T138 278T92 479T80 711Q80 795 85 867T104 1015T142 1153T202 1269T290 1362T411 1422T569 1444Z"
/>
<glyph unicode="1" glyph-name="one" horiz-adv-x="1138" d="M618 0V1073H246V1159Q294 1162 325 1165T394 1175T458 1190T511 1214T558 1248T595 1296T625 1361T645 1444H750V0H618Z" />
<glyph unicode="2" glyph-name="two" horiz-adv-x="1138" d="M281 971H141Q141 1184 269 1314T610 1444Q821 1444 938 1331T1055 1044Q1055 953 1023 875T941 744T820 641T686 556T547 479T426 401Q340 336 291 270T238 111H1042V0H98Q100 114 123 196T211 352Q280
431 367 499T527 609T673 696T797 785T879 891T911 1036Q911 1174 822 1253T594 1333Q455 1333 365 1226T281 971Z" />
<glyph unicode="3" glyph-name="three" horiz-adv-x="1138" d="M453 696V803Q549 802 620 814T749 857T836 942T866 1079Q866 1165 823 1223T713 1307T559 1333Q422 1333 336 1247T250 1024H119Q119 1216 258 1348Q320 1404 400 1424T586 1444Q703 1444 794 1406T941
1286T997 1087Q997 853 793 766Q1049 685 1049 410Q1049 225 925 102T584 -29Q329 -29 211 70T70 418H201Q201 257 298 170T559 82Q713 82 818 180T918 408Q914 520 850 589T686 682T453 696Z" />
<glyph unicode="4" glyph-name="four" horiz-adv-x="1138" d="M733 0V356H74V469L745 1430H864V467H1065V356H864V0H733ZM733 1233L203 467H733V1233Z" />
<glyph unicode="5" glyph-name="five" horiz-adv-x="1138" d="M72 375H203Q222 233 318 158T559 82Q716 82 810 187T905 451Q905 614 808 715T547 817Q348 817 233 668L125 682L242 1430H958V1319H352L262 834Q346 888 413 908T580 928Q782 928 909 799T1036 451Q1036
340 998 248T897 97T751 4T580 -29Q474 -29 388 -8T233 60T122 186T72 375Z" />
<glyph unicode="6" glyph-name="six" horiz-adv-x="1138" d="M1030 1090H895Q873 1204 803 1268T621 1333Q365 1333 275 1061Q235 942 217 700Q216 693 215 680Q247 724 266 747T322 806T393 859T480 891T594 905Q811 905 932 782T1053 440Q1053 221 931 96T590
-29Q478 -29 389 8T230 124T122 340T84 662Q84 740 90 813T114 966T156 1114T223 1244T318 1349T446 1418T608 1444Q783 1444 897 1352T1030 1090ZM590 795Q442 795 353 691T264 436Q264 372 282 312T338 199T441 114T592 82Q680 82 746 113T849 198T904 313T922
444Q922 615 839 705T590 795Z" />
<glyph unicode="7" glyph-name="seven" horiz-adv-x="1138" d="M121 1298V1430H1040V1307Q893 1141 778 949T597 582T497 261T455 0H311Q332 301 498 665T883 1298H121Z" />
<glyph unicode="8" glyph-name="eight" horiz-adv-x="1138" d="M571 707Q413 707 317 629T221 397Q221 261 319 172T580 82Q725 82 821 172T918 406Q918 552 821 629T571 707ZM565 1333Q438 1333 355 1265T272 1073Q272 947 361 882T580 817Q706 817 782 886T858
1102Q858 1213 785 1273T565 1333ZM342 776Q284 813 251 839T191 901T152 983T141 1092Q141 1241 262 1345T553 1444Q639 1444 715 1423T853 1361T952 1251T989 1092Q989 865 793 768Q912 725 980 630T1049 410Q1049 201 912 86T541 -29Q477 -29 414 -12T292 40T189
124T117 244T90 397Q90 528 155 628T342 776Z" />
<glyph unicode="9" glyph-name="nine" horiz-adv-x="1138" d="M109 317H242Q288 82 522 82Q593 82 651 104T749 163T819 253T868 361T898 483T916 605T924 723L920 727Q782 502 530 502Q328 502 206 629T84 967Q84 1071 112 1157T197 1307T343 1408T549 1444Q1055
1444 1055 715Q1055 358 910 165T528 -29Q352 -29 239 59T109 317ZM549 1333Q386 1330 301 1233T215 963Q215 798 303 705T549 612Q698 612 785 715T872 971Q872 1133 786 1231T549 1333Z" />
<glyph unicode=":" glyph-name="colon" horiz-adv-x="569" d="M358 0H209V180H358V0ZM358 827H209V1008H358V827Z" />
<glyph unicode=";" glyph-name="semicolon" horiz-adv-x="569" d="M358 180V-61Q358 -147 318 -203T209 -281V-205Q241 -185 260 -155T279 -70V0H209V180H358ZM358 827H209V1008H358V827Z" />
<glyph unicode="&lt;" glyph-name="less" horiz-adv-x="1351" d="M326 522L1188 119V-12L164 469V578L1188 1034V903L326 522Z" />
<glyph unicode="=" glyph-name="equal" horiz-adv-x="1351" d="M1188 774V651H164V774H1188ZM1188 377V254H164V377H1188Z" />
<glyph unicode="&gt;" glyph-name="greater" horiz-adv-x="1351" d="M1188 578V469L164 -12V119L1026 522L164 903V1034L1188 578Z" />
<glyph unicode="?" glyph-name="question" horiz-adv-x="1024" d="M561 373H442Q440 504 461 590T555 754Q581 782 628 826T706 901T770 972T819 1054T836 1139Q836 1253 750 1328T516 1403Q369 1403 284 1305T203 1057H78Q70 1157 101 1242T191 1387T336 1479T520
1513Q728 1513 847 1409T967 1128Q967 1061 942 1003T873 899T784 811T687 718T604 616Q583 583 573 536T562 461T561 373ZM580 0H430V180H580V0Z" />
<glyph unicode="@" glyph-name="at" horiz-adv-x="1638" d="M1401 342H1522Q1427 166 1245 64T858 -39Q697 -39 553 23T305 190T142 439T82 743Q82 900 144 1042T309 1288T555 1452T850 1513Q996 1513 1126 1464T1350 1331T1500 1125T1556 866Q1556 749 1512 637T1400
445T1246 317T1079 268Q1021 268 971 295T903 375Q858 328 791 300T659 272Q531 272 453 361T375 580Q375 662 398 749T467 917T572 1060T714 1162T883 1200Q957 1200 1019 1165T1112 1065L1143 1159H1280L1073 541Q1060 503 1054 477T1048 425T1063 388T1108 375Q1189
375 1266 454T1389 648T1434 872Q1434 1034 1353 1158T1141 1347T854 1411Q715 1411 593 1357T387 1210T254 992T205 729Q205 592 255 469T392 257T600 115T858 63Q1018 63 1164 137T1401 342ZM690 401Q757 402 821 458T930 597T1001 769T1028 930Q1028 992 989
1035T887 1079Q810 1079 741 1029T627 904T556 745T530 590Q530 512 573 457T690 401Z" />
<glyph unicode="A" glyph-name="A" horiz-adv-x="1366" d="M174 0H31L610 1475H768L1333 0H1190L1020 463H348L174 0ZM684 1356L395 582H973L684 1356Z" />
<glyph unicode="B" glyph-name="B" horiz-adv-x="1366" d="M305 705V119H659Q759 119 825 125T950 150T1041 201T1092 287T1110 416Q1110 487 1090 539T1034 623T941 673T822 698T676 705H305ZM305 1356V823H657Q867 823 954 893T1042 1104Q1042 1242 949 1299T627
1356H305ZM768 0H166V1475H698Q947 1475 1064 1377T1182 1104Q1182 961 1114 883T946 786V782Q1095 760 1172 663T1249 416Q1249 0 768 0Z" />
<glyph unicode="C" glyph-name="C" horiz-adv-x="1478" d="M1356 1047H1212Q1170 1231 1056 1313T748 1395Q644 1395 559 1361T414 1266T315 1122T257 944T238 741Q238 637 253 546T306 367T402 218T551 118T760 80Q943 80 1063 191T1227 485H1372Q1352 396 1319
321T1233 178T1110 63T945 -11T733 -39Q600 -39 493 2T313 113T191 283T120 496T98 737Q98 942 149 1094T295 1337T511 1470T784 1513Q1016 1513 1168 1393T1356 1047Z" />
<glyph unicode="D" glyph-name="D" horiz-adv-x="1478" d="M670 0H166V1475H670Q818 1475 924 1454T1124 1364Q1194 1314 1244 1237T1321 1071T1358 902T1370 739Q1370 375 1192 180Q1099 76 969 38T670 0ZM305 1356V119H639Q748 119 827 132T985 186Q1055 222
1105 285T1182 427T1219 581T1231 739Q1231 1165 977 1300Q874 1356 639 1356H305Z" />
<glyph unicode="E" glyph-name="E" horiz-adv-x="1251" d="M1167 0H166V1475H1147V1356H305V823H1065V705H305V119H1167V0Z" />
<glyph unicode="F" glyph-name="F" horiz-adv-x="1138" d="M291 0H152V1475H1102V1356H291V823H1028V705H291V0Z" />
<glyph unicode="G" glyph-name="G" horiz-adv-x="1593" d="M1290 643H793V762H1423V0H1305V252Q1265 183 1216 132T1100 41T947 -18T754 -39Q613 -39 496 10T292 156T157 402T109 745Q109 910 151 1048T275 1291T489 1454T791 1513Q1031 1513 1195 1395T1407 1047H1264Q1227
1209 1099 1302T801 1395Q658 1395 551 1344T378 1199T280 977T248 690Q248 568 284 458T387 263T556 130T782 80Q916 80 1037 142T1227 338Q1287 455 1290 643Z" />
<glyph unicode="H" glyph-name="H" horiz-adv-x="1478" d="M303 0H164V1475H303V842H1176V1475H1315V0H1176V723H303V0Z" />
<glyph unicode="I" glyph-name="I" horiz-adv-x="569" d="M354 0H215V1475H354V0Z" />
<glyph unicode="J" glyph-name="J" horiz-adv-x="1024" d="M45 467H184Q183 420 184 388T191 312T207 240T237 180T285 131T355 100T451 88Q589 88 650 167T711 408V1475H850V403Q850 -39 434 -39Q338 -39 267 -11T154 63T87 176T54 313T45 467Z" />
<glyph unicode="K" glyph-name="K" horiz-adv-x="1366" d="M313 0H174V1475H313V711L1069 1475H1227L645 887L1329 0H1159L545 801L313 569V0Z" />
<glyph unicode="L" glyph-name="L" horiz-adv-x="1138" d="M1096 0H166V1475H305V119H1096V0Z" />
<glyph unicode="M" glyph-name="M" horiz-adv-x="1705" d="M299 0H160V1475H373L856 174H860L1335 1475H1546V0H1407V1315H1403L920 0H788L303 1315H299V0Z" />
<glyph unicode="N" glyph-name="N" horiz-adv-x="1478" d="M1153 0L305 1286H301V0H162V1475H319L1171 186H1176V1475H1315V0H1153Z" />
<glyph unicode="O" glyph-name="O" horiz-adv-x="1593" d="M109 735Q108 897 152 1038T281 1285T496 1452T788 1513Q956 1513 1090 1453T1309 1286T1438 1039T1483 735Q1483 574 1439 435T1310 190T1094 22T795 -39T497 22T281 189T153 435T109 735ZM797 80Q909
80 1000 115T1155 211T1261 356T1323 535T1343 735Q1343 1042 1196 1218T793 1395Q656 1395 549 1341T378 1193T281 983T248 735Q248 601 280 486T377 278T549 133T797 80Z" />
<glyph unicode="P" glyph-name="P" horiz-adv-x="1251" d="M299 0H160V1475H698Q810 1475 895 1453T1033 1394T1120 1303T1167 1191T1180 1063Q1180 968 1147 894T1060 775T931 702T779 662T614 651H299V0ZM299 770H618Q723 770 795 782T926 827T1012 920T1040
1073Q1040 1356 659 1356H299V770Z" />
<glyph unicode="Q" glyph-name="Q" horiz-adv-x="1593" d="M1251 139L1448 -12L1370 -106L1153 61Q994 -39 784 -39Q618 -39 486 22T270 189T142 435T98 735Q98 892 140 1030T265 1277T479 1449T778 1513Q986 1513 1141 1424T1385 1158T1473 735Q1473 554 1417
400T1251 139ZM950 371L1149 219Q1240 306 1286 441T1333 735Q1333 897 1292 1023T1176 1231T1002 1353T782 1395Q672 1395 581 1359T427 1261T321 1115T258 935T238 735Q238 628 257 533T320 354T426 210T582 115T786 80Q935 80 1044 145L877 274L950 371Z" />
<glyph unicode="R" glyph-name="R" horiz-adv-x="1366" d="M303 788H737Q902 788 1003 860T1104 1081Q1104 1356 745 1356H303V788ZM741 670H303V0H164V1475H741Q990 1475 1116 1382T1243 1087Q1243 949 1188 867T1004 727Q1054 710 1090 677T1144 608T1174 517T1187
425T1192 328Q1196 168 1210 103T1253 14V0H1100Q1075 44 1064 139T1047 342T1034 489Q1022 547 995 584T926 640T843 664T741 670Z" />
<glyph unicode="S" glyph-name="S" horiz-adv-x="1251" d="M88 440H223Q231 344 266 273T359 161T488 100T647 80Q743 80 816 104T934 172T1000 268T1022 385Q1022 458 991 511T908 595T789 649T647 688T498 724T356 772T237 844T154 955T123 1118Q123 1196 155
1266T248 1392T406 1480T623 1513Q744 1513 840 1478T996 1383T1087 1243T1118 1073H985Q985 1154 955 1217T874 1319T760 1376T623 1395Q521 1395 445 1366T327 1289T270 1185T262 1069Q272 1008 309 965T401 896T523 852T663 818T807 784T942 736T1055 664T1132
552T1161 391Q1161 188 1020 75T623 -39Q506 -39 409 -9T240 80T128 231T88 440Z" />
<glyph unicode="T" glyph-name="T" horiz-adv-x="1138" d="M33 1356V1475H1106V1356H639V0H500V1356H33Z" />
<glyph unicode="U" glyph-name="U" horiz-adv-x="1478" d="M168 555V1475H307V596Q307 323 409 202T739 80Q972 80 1071 204T1171 596V1475H1311V555Q1311 265 1167 113T739 -39Q454 -39 311 114T168 555Z" />
<glyph unicode="V" glyph-name="V" horiz-adv-x="1251" d="M549 0L37 1475H182L627 164L1069 1475H1214L702 0H549Z" />
<glyph unicode="W" glyph-name="W" horiz-adv-x="1820" d="M987 1475L1323 197H1327L1649 1475H1792L1405 0H1251L909 1303H905L563 0H410L29 1475H168L485 197H489L831 1475H987Z" />
<glyph unicode="X" glyph-name="X" horiz-adv-x="1251" d="M1053 0L623 651L195 0H37L545 758L57 1475H219L623 854L1028 1475H1190L707 758L1212 0H1053Z" />
<glyph unicode="Y" glyph-name="Y" horiz-adv-x="1251" d="M184 1475L618 764L1063 1475H1225L690 643V0H551V633L25 1475H184Z" />
<glyph unicode="Z" glyph-name="Z" horiz-adv-x="1251" d="M1186 0H63V117L1008 1356H143V1475H1180V1358L236 119H1186V0Z" />
<glyph unicode="[" glyph-name="bracketleft" horiz-adv-x="681" d="M573 -391H186V1513H578V1411H317V-289H573V-391Z" />
<glyph unicode="\" glyph-name="backslash" horiz-adv-x="569" d="M461 -184L-20 1513H94L575 -184H461Z" />
<glyph unicode="]" glyph-name="bracketright" horiz-adv-x="681" d="M496 1513V-391H104V-289H365V1411H109V1513H496Z" />
<glyph unicode="^" glyph-name="asciicircum" horiz-adv-x="1351" d="M268 502H150L621 1430H727L1200 502H1083L672 1305L268 502Z" />
<glyph unicode="_" glyph-name="underscore" horiz-adv-x="1024" d="M0 -154H1024V-256H0V-154Z" />
<glyph unicode="`" glyph-name="grave" horiz-adv-x="681" d="M375 1176L92 1460H252L479 1176H375Z" />
<glyph unicode="a" glyph-name="a" horiz-adv-x="1138" d="M842 391V557Q793 537 733 525T634 508T524 498Q225 474 225 272Q225 181 292 132T455 82Q530 82 597 100T720 155T809 252T842 391ZM465 596L635 618Q745 630 797 653Q842 674 842 764Q842 864 778 921T578
979Q441 979 363 925T268 739H143Q152 860 213 940T367 1055T580 1090Q664 1090 731 1073T852 1018T935 915T965 760V182Q965 108 990 91T1094 100V4Q1031 -16 997 -16Q970 -16 942 -10Q903 -4 881 21T852 75T844 147Q685 -29 449 -29Q353 -29 274 4T145 107T94
276Q94 547 465 596Z" />
<glyph unicode="b" glyph-name="b" horiz-adv-x="1251" d="M285 535Q285 336 380 209T643 82Q803 82 904 192T1006 498Q1011 634 974 741T851 913T643 979Q535 979 452 918T327 756T285 535ZM285 186V0H162V1475H285V891Q341 985 444 1037T664 1090Q758 1090 836
1060T970 978T1063 855T1119 701T1137 528Q1137 407 1110 308T1026 133T876 14T657 -29Q550 -29 445 28T289 186H285Z" />
<glyph unicode="c" glyph-name="c" horiz-adv-x="1138" d="M1024 727H899Q866 847 786 913T584 979Q511 979 451 954T349 885T280 783T240 660T227 528Q227 441 247 364T309 222T421 120T584 82Q719 82 803 157T909 367H1040Q1006 183 892 77T584 -29Q461 -29
366 13T213 132T126 308T96 528Q96 640 128 740T220 919T374 1044T584 1090Q770 1090 883 999T1024 727Z" />
<glyph unicode="d" glyph-name="d" horiz-adv-x="1251" d="M967 535Q967 656 925 756T799 917T608 979Q485 979 400 914T278 741T246 498Q247 303 347 193T608 82Q777 82 872 209T967 535ZM967 891V1475H1090V0H967V186H963Q911 86 806 29T594 -29Q469 -29 376
13T226 132T143 308T115 528Q115 642 144 741T229 920T378 1044T588 1090Q703 1090 806 1038T967 891Z" />
<glyph unicode="e" glyph-name="e" horiz-adv-x="1138" d="M223 604H915Q915 710 878 793T764 928T580 979Q501 979 437 949T329 867T260 748T223 604ZM1047 502H223Q221 321 315 202T580 82Q701 82 787 146T901 326H1038Q930 -29 580 -29Q456 -29 361 13T208
132T121 307T92 526Q92 642 126 745T221 924T376 1045T580 1090Q800 1090 924 937T1047 502Z" />
<glyph unicode="f" glyph-name="f" horiz-adv-x="569" d="M199 958H41V1061H199V1229Q199 1503 424 1503Q483 1503 526 1495V1382Q488 1393 453 1393Q416 1393 391 1381T352 1351T332 1304T324 1251T322 1192V1061H526V958H322V0H199V958Z" />
<glyph unicode="g" glyph-name="g" horiz-adv-x="1251" d="M967 526Q967 725 872 852T608 979Q449 979 348 869T246 563Q241 427 278 320T400 148T608 82Q716 82 799 143T924 305T967 526ZM967 874V1061H1090V102Q1090 11 1077 -63T1030 -209T942 -328T798 -405T592
-434Q481 -434 393 -405T254 -329T175 -231T143 -129H274Q300 -239 383 -281T592 -324Q689 -324 760 -295T871 -221T934 -108T963 24T967 170Q910 76 807 24T588 -29Q470 -29 378 16T230 141T144 319T115 532Q115 653 142 752T226 928T375 1047T594 1090Q701 1090
806 1032T963 874H967Z" />
<glyph unicode="h" glyph-name="h" horiz-adv-x="1138" d="M270 0H147V1475H270V913Q353 1001 431 1045T612 1090Q832 1090 936 938Q970 887 979 832T989 694V0H866V692Q866 838 801 908T592 979Q484 979 407 920T297 772Q270 700 270 571V0Z" />
<glyph unicode="i" glyph-name="i" horiz-adv-x="454" d="M289 0H166V1061H289V0ZM295 1292H160V1475H295V1292Z" />
<glyph unicode="j" glyph-name="j" horiz-adv-x="454" d="M180 1061H303V-141Q303 -203 300 -240T285 -316T250 -373T188 -405T90 -418Q46 -418 10 -410V-301Q111 -314 145 -280T180 -158V1061ZM309 1475V1292H174V1475H309Z" />
<glyph unicode="k" glyph-name="k" horiz-adv-x="1024" d="M262 0H139V1475H262V557L782 1061H950L553 678L997 0H860L463 592L262 401V0Z" />
<glyph unicode="l" glyph-name="l" horiz-adv-x="454" d="M289 0H166V1475H289V0Z" />
<glyph unicode="m" glyph-name="m" horiz-adv-x="1705" d="M254 571V0H131V1061H254V901H258Q305 990 393 1040T586 1090Q657 1090 710 1075T799 1029T856 965T897 885Q949 986 1038 1038T1243 1090Q1327 1090 1388 1066T1484 1005T1539 909T1566 796T1573 670V0H1450V733Q1450
854 1399 916T1223 979Q1153 979 1091 949T983 858Q947 810 930 730T913 571V0H791V733Q791 854 740 916T563 979Q414 979 324 858Q287 810 271 730T254 571Z" />
<glyph unicode="n" glyph-name="n" horiz-adv-x="1138" d="M270 571V0H147V1061H270V913Q353 1001 431 1045T612 1090Q832 1090 936 938Q970 887 979 832T989 694V0H866V692Q866 838 801 908T592 979Q484 979 407 920T297 772Q270 700 270 571Z" />
<glyph unicode="o" glyph-name="o" horiz-adv-x="1138" d="M569 -29Q466 -27 378 9T223 112T117 287T78 530Q78 648 109 748T200 926T355 1046T569 1090Q690 1090 785 1047T940 927T1030 750T1061 530Q1061 278 926 125T569 -29ZM930 530Q929 627 909 706T847
847T735 944T569 979Q476 979 405 942T292 840T230 698T209 530Q209 327 303 205T569 82Q662 82 733 119T847 221T909 364T930 530Z" />
<glyph unicode="p" glyph-name="p" horiz-adv-x="1251" d="M285 526Q285 405 327 305T452 144T643 82Q766 82 851 147T973 320T1006 563Q1005 758 904 868T643 979Q475 979 380 852T285 526ZM285 170V-418H162V1061H285V874H289Q340 974 445 1032T657 1090Q782
1090 876 1048T1026 928T1109 752T1137 532Q1137 442 1119 360T1063 207T970 83T837 1T664 -29Q548 -29 445 23T285 170Z" />
<glyph unicode="q" glyph-name="q" horiz-adv-x="1251" d="M967 535Q967 656 925 756T799 917T608 979Q485 979 400 914T278 741T246 498Q247 303 347 193T608 82Q777 82 872 209T967 535ZM967 874V1061H1090V-418H967V170Q910 76 807 24T588 -29Q470 -29 378
16T230 141T144 319T115 532Q115 653 142 752T226 928T375 1047T594 1090Q701 1090 806 1032T963 874H967Z" />
<glyph unicode="r" glyph-name="r" horiz-adv-x="681" d="M276 520V0H154V1061H276V862H281Q330 987 410 1038T627 1090V956Q546 958 484 936T384 875T320 778T286 658T276 520Z" />
<glyph unicode="s" glyph-name="s" horiz-adv-x="1024" d="M94 332H219Q248 197 322 140T537 82Q664 82 731 139T799 279Q799 328 776 363T713 419T623 453T516 479T403 504T295 538T205 589T143 669T119 786Q119 922 218 1006T492 1090Q858 1090 901 756H776Q746
979 489 979Q375 979 313 930T250 797Q250 739 287 700T385 639T517 602T662 564T795 511T892 422T930 281Q930 133 811 52T498 -29Q317 -29 210 73T94 332Z" />
<glyph unicode="t" glyph-name="t" horiz-adv-x="569" d="M520 96V-4Q517 -5 488 -12T432 -24T379 -29Q284 -29 237 19T190 182V958H41V1061H190V1356H313V1061H512V958H313V231Q313 143 330 113T420 82Q462 82 520 96Z" />
<glyph unicode="u" glyph-name="u" horiz-adv-x="1138" d="M866 483V1061H989V0H866V147Q838 116 823 100T772 55T706 11T626 -16T524 -29Q421 -29 347 0T230 84T167 207T147 362V1061H270V365Q270 224 335 153T543 82Q692 82 779 193T866 483Z" />
<glyph unicode="v" glyph-name="v" horiz-adv-x="1024" d="M440 0L35 1061H168L512 152L856 1061H989L578 0H440Z" />
<glyph unicode="w" glyph-name="w" horiz-adv-x="1478" d="M811 1061L1044 164L1323 1061H1448L1104 0H973L741 891H737L502 0H354L31 1061H154L428 156L674 1061H811Z" />
<glyph unicode="x" glyph-name="x" horiz-adv-x="1024" d="M838 0L516 459L186 0H37L444 549L70 1061H221L514 639L815 1061H971L588 549L985 0H838Z" />
<glyph unicode="y" glyph-name="y" horiz-adv-x="1024" d="M139 -403V-289Q205 -301 242 -301Q281 -301 311 -280T361 -223T394 -152T423 -73T449 -8L37 1061H174L514 150L854 1061H987L592 14Q572 -40 560 -71T529 -147T498 -216T467 -275T433 -326T397 -364T355
-395T309 -411T256 -418Q194 -418 139 -403Z" />
<glyph unicode="z" glyph-name="z" horiz-adv-x="1024" d="M956 0H68V109L772 958H115V1061H930V952L225 102H956V0Z" />
<glyph unicode="{" glyph-name="braceleft" horiz-adv-x="681" d="M260 809V1182Q260 1368 322 1442T557 1509Q391 1452 391 1262V868Q391 736 357 663T223 563V559Q319 537 355 472T391 283V-139Q391 -242 433 -300T571 -387V-391Q395 -394 328 -326T260 -96V322Q260
425 225 482T92 559V563Q148 579 182 599T233 652T255 718T260 809Z" />
<glyph unicode="|" glyph-name="bar" horiz-adv-x="454" d="M166 1536H289V-512H166V1536Z" />
<glyph unicode="}" glyph-name="braceright" horiz-adv-x="681" d="M416 1227V809Q416 705 451 648T584 571V567Q528 551 494 531T443 478T421 413T416 322V-51Q416 -238 354 -311T119 -379Q285 -321 285 -131V262Q285 327 291 372T314 458T366 526T453 567V571Q356
593 321 658T285 848V1270Q285 1373 243 1431T104 1518V1522Q281 1525 348 1457T416 1227Z" />
<glyph unicode="~" glyph-name="asciitilde" horiz-adv-x="1351" d="M453 664Q532 664 692 590Q699 587 718 578T746 566T771 555T796 544T819 535T843 527T864 521T885 517T903 516Q1011 516 1106 694L1188 625Q1071 401 901 401Q883 401 858 406T813 416T759
434T712 452T663 472T625 487Q614 492 574 511T507 540T453 549Q422 549 392 535T343 506T298 457T263 408T231 356L164 453Q194 498 215 525T274 589T356 645T453 664Z" />
</font>
</defs>
</svg>
